<?xml version="1.0" encoding="utf-8"?>
<!-- Generator: Adobe Illustrator 16.0.0, SVG Export Plug-In . SVG Version: 6.00 Build 0)  -->
<!DOCTYPE svg PUBLIC "-//W3C//DTD SVG 1.1//EN" "http://www.w3.org/Graphics/SVG/1.1/DTD/svg11.dtd">
<svg version="1.1" xmlns="http://www.w3.org/2000/svg" xmlns:xlink="http://www.w3.org/1999/xlink" x="0px" y="0px" width="500px"
	 height="500px" viewBox="0 0 500 500" enable-background="new 0 0 500 500" xml:space="preserve">
<g id="Layer_1">
	<line fill="none" stroke="#000000" stroke-miterlimit="10" x1="12.5" y1="249.512" x2="40.843" y2="249.512"/>
	<line fill="none" stroke="#000000" stroke-miterlimit="10" x1="43.902" y1="131.009" x2="56.176" y2="138.096"/>
	<line fill="none" stroke="#000000" stroke-miterlimit="10" x1="131.011" y1="43.902" x2="138.096" y2="56.176"/>
	<line fill="none" stroke="#000000" stroke-miterlimit="10" x1="250" y1="12.02" x2="250" y2="26.192"/>
	<line fill="none" stroke="#000000" stroke-miterlimit="10" x1="368.991" y1="43.902" x2="361.904" y2="56.176"/>
	<line fill="none" stroke="#000000" stroke-miterlimit="10" x1="456.098" y1="131.011" x2="443.823" y2="138.096"/>
	<line fill="none" stroke="#000000" stroke-miterlimit="10" x1="487.98" y1="250" x2="459.637" y2="250"/>
	<line fill="none" stroke="#000000" stroke-miterlimit="10" x1="456.098" y1="368.991" x2="443.824" y2="361.904"/>
	<line fill="none" stroke="#000000" stroke-miterlimit="10" x1="368.99" y1="456.098" x2="361.904" y2="443.823"/>
	<line fill="none" stroke="#000000" stroke-miterlimit="10" x1="250" y1="487.98" x2="250" y2="473.809"/>
	<line fill="none" stroke="#000000" stroke-miterlimit="10" x1="131.009" y1="456.098" x2="138.096" y2="443.824"/>
	<line fill="none" stroke="#000000" stroke-miterlimit="10" x1="43.902" y1="368.99" x2="56.176" y2="361.904"/>
	<path fill="none" stroke="#BE1E2D" stroke-miterlimit="10" d="M459.834,328.019c9.036-24.293,13.975-50.579,13.975-78.019
		c0-123.606-100.203-223.808-223.809-223.808c-118.643,0-215.723,92.315-223.329,209.035"/>
	<path fill="none" stroke="#006838" stroke-miterlimit="10" d="M77.794,77.256C33.496,121.417,6.084,182.507,6.084,250
		c0,134.711,109.205,243.916,243.916,243.916c92.613,0,173.172-51.616,214.477-127.65"/>
</g>
<g id="Layer_3" opacity="0.5">
	<line fill="none" stroke="#000000" stroke-miterlimit="10" x1="486.677" y1="274.876" x2="479.63" y2="274.136"/>
	<line fill="none" stroke="#000000" stroke-miterlimit="10" x1="476.333" y1="323.541" x2="469.594" y2="321.351"/>
	<line fill="none" stroke="#000000" stroke-miterlimit="10" x1="482.779" y1="299.479" x2="475.849" y2="298.006"/>
	<line fill="none" stroke="#000000" stroke-miterlimit="10" x1="467.407" y1="346.795" x2="460.933" y2="343.914"/>
	<line fill="none" stroke="#000000" stroke-miterlimit="10" x1="442.53" y1="389.881" x2="436.798" y2="385.717"/>
	<line fill="none" stroke="#000000" stroke-miterlimit="10" x1="426.854" y1="409.239" x2="421.588" y2="404.499"/>
	<line fill="none" stroke="#000000" stroke-miterlimit="10" x1="409.24" y1="426.854" x2="404.498" y2="421.588"/>
	<line fill="none" stroke="#000000" stroke-miterlimit="10" x1="389.881" y1="442.53" x2="385.717" y2="436.798"/>
	<line fill="none" stroke="#000000" stroke-miterlimit="10" x1="346.795" y1="467.405" x2="343.913" y2="460.933"/>
	<line fill="none" stroke="#000000" stroke-miterlimit="10" x1="323.539" y1="476.334" x2="321.35" y2="469.594"/>
	<line fill="none" stroke="#000000" stroke-miterlimit="10" x1="299.479" y1="482.78" x2="298.006" y2="475.85"/>
	<line fill="none" stroke="#000000" stroke-miterlimit="10" x1="274.876" y1="486.677" x2="274.135" y2="479.63"/>
	<line fill="none" stroke="#000000" stroke-miterlimit="10" x1="225.123" y1="486.677" x2="225.863" y2="479.63"/>
	<line fill="none" stroke="#000000" stroke-miterlimit="10" x1="200.521" y1="482.779" x2="201.994" y2="475.849"/>
	<line fill="none" stroke="#000000" stroke-miterlimit="10" x1="176.459" y1="476.333" x2="178.649" y2="469.594"/>
	<line fill="none" stroke="#000000" stroke-miterlimit="10" x1="153.204" y1="467.406" x2="156.086" y2="460.933"/>
	<line fill="none" stroke="#000000" stroke-miterlimit="10" x1="110.119" y1="442.53" x2="114.283" y2="436.798"/>
	<line fill="none" stroke="#000000" stroke-miterlimit="10" x1="90.762" y1="426.854" x2="95.502" y2="421.588"/>
	<line fill="none" stroke="#000000" stroke-miterlimit="10" x1="73.146" y1="409.24" x2="78.413" y2="404.498"/>
	<line fill="none" stroke="#000000" stroke-miterlimit="10" x1="57.47" y1="389.881" x2="63.202" y2="385.717"/>
	<line fill="none" stroke="#000000" stroke-miterlimit="10" x1="32.594" y1="346.795" x2="39.066" y2="343.913"/>
	<line fill="none" stroke="#000000" stroke-miterlimit="10" x1="23.666" y1="323.539" x2="30.406" y2="321.35"/>
	<line fill="none" stroke="#000000" stroke-miterlimit="10" x1="17.22" y1="299.479" x2="24.15" y2="298.006"/>
	<line fill="none" stroke="#000000" stroke-miterlimit="10" x1="13.322" y1="274.876" x2="20.369" y2="274.135"/>
	<line fill="none" stroke="#000000" stroke-miterlimit="10" x1="13.323" y1="225.123" x2="20.37" y2="225.863"/>
	<line fill="none" stroke="#000000" stroke-miterlimit="10" x1="17.221" y1="200.521" x2="24.151" y2="201.994"/>
	<line fill="none" stroke="#000000" stroke-miterlimit="10" x1="23.667" y1="176.459" x2="30.406" y2="178.649"/>
	<line fill="none" stroke="#000000" stroke-miterlimit="10" x1="32.594" y1="153.204" x2="39.067" y2="156.086"/>
	<line fill="none" stroke="#000000" stroke-miterlimit="10" x1="57.47" y1="110.119" x2="63.202" y2="114.283"/>
	<line fill="none" stroke="#000000" stroke-miterlimit="10" x1="73.146" y1="90.762" x2="78.412" y2="95.502"/>
	<line fill="none" stroke="#000000" stroke-miterlimit="10" x1="90.76" y1="73.146" x2="95.501" y2="78.413"/>
	<line fill="none" stroke="#000000" stroke-miterlimit="10" x1="110.119" y1="57.47" x2="114.284" y2="63.202"/>
	<line fill="none" stroke="#000000" stroke-miterlimit="10" x1="153.205" y1="32.594" x2="156.087" y2="39.066"/>
	<line fill="none" stroke="#000000" stroke-miterlimit="10" x1="176.46" y1="23.666" x2="178.65" y2="30.406"/>
	<line fill="none" stroke="#000000" stroke-miterlimit="10" x1="200.521" y1="17.22" x2="201.994" y2="24.15"/>
	<line fill="none" stroke="#000000" stroke-miterlimit="10" x1="225.124" y1="13.322" x2="225.865" y2="20.369"/>
	<line fill="none" stroke="#000000" stroke-miterlimit="10" x1="274.876" y1="13.323" x2="274.136" y2="20.37"/>
	<line fill="none" stroke="#000000" stroke-miterlimit="10" x1="299.479" y1="17.221" x2="298.006" y2="24.151"/>
	<line fill="none" stroke="#000000" stroke-miterlimit="10" x1="323.541" y1="23.667" x2="321.351" y2="30.406"/>
	<line fill="none" stroke="#000000" stroke-miterlimit="10" x1="346.795" y1="32.594" x2="343.913" y2="39.067"/>
	<line fill="none" stroke="#000000" stroke-miterlimit="10" x1="389.881" y1="57.47" x2="385.717" y2="63.202"/>
	<line fill="none" stroke="#000000" stroke-miterlimit="10" x1="409.239" y1="73.146" x2="404.499" y2="78.412"/>
	<line fill="none" stroke="#000000" stroke-miterlimit="10" x1="426.854" y1="90.76" x2="421.588" y2="95.501"/>
	<line fill="none" stroke="#000000" stroke-miterlimit="10" x1="442.53" y1="110.119" x2="436.798" y2="114.284"/>
	<line fill="none" stroke="#000000" stroke-miterlimit="10" x1="467.405" y1="153.205" x2="460.933" y2="156.087"/>
	<line fill="none" stroke="#000000" stroke-miterlimit="10" x1="476.334" y1="176.46" x2="469.594" y2="178.65"/>
	<line fill="none" stroke="#000000" stroke-miterlimit="10" x1="482.78" y1="200.521" x2="475.85" y2="201.994"/>
	<line fill="none" stroke="#000000" stroke-miterlimit="10" x1="486.677" y1="225.124" x2="479.63" y2="225.865"/>
</g>
<g id="Layer_4" opacity="0.1">
	<line fill="none" stroke="#000000" stroke-miterlimit="10" x1="486.938" y1="250" x2="481.937" y2="250"/>
	<line fill="none" stroke="#000000" stroke-miterlimit="10" x1="486.856" y1="243.798" x2="481.856" y2="243.929"/>
	<line fill="none" stroke="#000000" stroke-miterlimit="10" x1="486.613" y1="237.6" x2="481.618" y2="237.861"/>
	<line fill="none" stroke="#000000" stroke-miterlimit="10" x1="486.208" y1="231.41" x2="481.222" y2="231.802"/>
	<line fill="none" stroke="#000000" stroke-miterlimit="10" x1="485.641" y1="225.233" x2="480.667" y2="225.755"/>
	<line fill="none" stroke="#000000" stroke-miterlimit="10" x1="484.911" y1="219.073" x2="479.953" y2="219.726"/>
	<line fill="none" stroke="#000000" stroke-miterlimit="10" x1="484.021" y1="212.934" x2="479.082" y2="213.716"/>
	<line fill="none" stroke="#000000" stroke-miterlimit="10" x1="482.971" y1="206.821" x2="478.054" y2="207.732"/>
	<line fill="none" stroke="#000000" stroke-miterlimit="10" x1="481.761" y1="200.737" x2="476.869" y2="201.776"/>
	<line fill="none" stroke="#000000" stroke-miterlimit="10" x1="480.393" y1="194.687" x2="475.529" y2="195.854"/>
	<line fill="none" stroke="#000000" stroke-miterlimit="10" x1="478.866" y1="188.675" x2="474.035" y2="189.97"/>
	<line fill="none" stroke="#000000" stroke-miterlimit="10" x1="477.184" y1="182.706" x2="472.387" y2="184.126"/>
	<line fill="none" stroke="#000000" stroke-miterlimit="10" x1="475.345" y1="176.782" x2="470.587" y2="178.327"/>
	<line fill="none" stroke="#000000" stroke-miterlimit="10" x1="473.352" y1="170.908" x2="468.635" y2="172.578"/>
	<line fill="none" stroke="#000000" stroke-miterlimit="10" x1="471.204" y1="165.088" x2="466.533" y2="166.881"/>
	<line fill="none" stroke="#000000" stroke-miterlimit="10" x1="468.905" y1="159.326" x2="464.283" y2="161.241"/>
	<line fill="none" stroke="#000000" stroke-miterlimit="10" x1="466.457" y1="153.627" x2="461.887" y2="155.663"/>
	<line fill="none" stroke="#000000" stroke-miterlimit="10" x1="463.86" y1="147.994" x2="459.346" y2="150.148"/>
	<line fill="none" stroke="#000000" stroke-miterlimit="10" x1="461.117" y1="142.43" x2="456.66" y2="144.703"/>
	<line fill="none" stroke="#000000" stroke-miterlimit="10" x1="458.229" y1="136.94" x2="453.833" y2="139.329"/>
	<line fill="none" stroke="#000000" stroke-miterlimit="10" x1="455.199" y1="131.528" x2="450.866" y2="134.031"/>
	<line fill="none" stroke="#000000" stroke-miterlimit="10" x1="452.028" y1="126.198" x2="447.762" y2="128.813"/>
	<line fill="none" stroke="#000000" stroke-miterlimit="10" x1="448.719" y1="120.952" x2="444.521" y2="123.678"/>
	<line fill="none" stroke="#000000" stroke-miterlimit="10" x1="445.272" y1="115.794" x2="441.148" y2="118.629"/>
	<line fill="none" stroke="#000000" stroke-miterlimit="10" x1="441.692" y1="110.729" x2="437.645" y2="113.67"/>
	<line fill="none" stroke="#000000" stroke-miterlimit="10" x1="437.981" y1="105.758" x2="434.012" y2="108.805"/>
	<line fill="none" stroke="#000000" stroke-miterlimit="10" x1="434.142" y1="100.887" x2="430.253" y2="104.037"/>
	<line fill="none" stroke="#000000" stroke-miterlimit="10" x1="430.175" y1="96.118" x2="426.371" y2="99.368"/>
	<line fill="none" stroke="#000000" stroke-miterlimit="10" x1="426.085" y1="91.454" x2="422.368" y2="94.803"/>
	<line fill="none" stroke="#000000" stroke-miterlimit="10" x1="421.874" y1="86.899" x2="418.246" y2="90.344"/>
	<line fill="none" stroke="#000000" stroke-miterlimit="10" x1="417.546" y1="82.456" x2="414.01" y2="85.995"/>
	<line fill="none" stroke="#000000" stroke-miterlimit="10" x1="413.103" y1="78.127" x2="409.66" y2="81.758"/>
	<line fill="none" stroke="#000000" stroke-miterlimit="10" x1="408.548" y1="73.916" x2="405.202" y2="77.637"/>
	<line fill="none" stroke="#000000" stroke-miterlimit="10" x1="403.884" y1="69.826" x2="400.637" y2="73.633"/>
	<line fill="none" stroke="#000000" stroke-miterlimit="10" x1="399.115" y1="65.859" x2="395.969" y2="69.75"/>
	<line fill="none" stroke="#000000" stroke-miterlimit="10" x1="394.244" y1="62.019" x2="391.201" y2="65.991"/>
	<line fill="none" stroke="#000000" stroke-miterlimit="10" x1="389.273" y1="58.308" x2="386.336" y2="62.358"/>
	<line fill="none" stroke="#000000" stroke-miterlimit="10" x1="384.208" y1="54.728" x2="381.378" y2="58.853"/>
	<line fill="none" stroke="#000000" stroke-miterlimit="10" x1="379.051" y1="51.281" x2="376.33" y2="55.479"/>
	<line fill="none" stroke="#000000" stroke-miterlimit="10" x1="373.806" y1="47.971" x2="371.195" y2="52.239"/>
	<line fill="none" stroke="#000000" stroke-miterlimit="10" x1="368.475" y1="44.799" x2="365.977" y2="49.134"/>
	<line fill="none" stroke="#000000" stroke-miterlimit="10" x1="363.063" y1="41.769" x2="360.679" y2="46.167"/>
	<line fill="none" stroke="#000000" stroke-miterlimit="10" x1="357.573" y1="38.88" x2="355.306" y2="43.34"/>
	<line fill="none" stroke="#000000" stroke-miterlimit="10" x1="352.01" y1="36.137" x2="349.86" y2="40.655"/>
	<line fill="none" stroke="#000000" stroke-miterlimit="10" x1="346.377" y1="33.54" x2="344.347" y2="38.113"/>
	<line fill="none" stroke="#000000" stroke-miterlimit="10" x1="340.678" y1="31.091" x2="338.769" y2="35.715"/>
	<line fill="none" stroke="#000000" stroke-miterlimit="10" x1="334.916" y1="28.792" x2="333.129" y2="33.465"/>
	<line fill="none" stroke="#000000" stroke-miterlimit="10" x1="329.097" y1="26.646" x2="327.433" y2="31.363"/>
	<line fill="none" stroke="#000000" stroke-miterlimit="10" x1="323.223" y1="24.651" x2="321.684" y2="29.411"/>
	<line fill="none" stroke="#000000" stroke-miterlimit="10" x1="317.299" y1="22.812" x2="315.885" y2="27.61"/>
	<line fill="none" stroke="#000000" stroke-miterlimit="10" x1="311.329" y1="21.128" x2="310.041" y2="25.962"/>
	<line fill="none" stroke="#000000" stroke-miterlimit="10" x1="305.316" y1="19.601" x2="304.156" y2="24.467"/>
	<line fill="none" stroke="#000000" stroke-miterlimit="10" x1="299.266" y1="18.231" x2="298.234" y2="23.126"/>
	<line fill="none" stroke="#000000" stroke-miterlimit="10" x1="293.183" y1="17.021" x2="292.279" y2="21.941"/>
	<line fill="none" stroke="#000000" stroke-miterlimit="10" x1="287.069" y1="15.97" x2="286.295" y2="20.913"/>
	<line fill="none" stroke="#000000" stroke-miterlimit="10" x1="280.931" y1="15.08" x2="280.286" y2="20.042"/>
	<line fill="none" stroke="#000000" stroke-miterlimit="10" x1="274.771" y1="14.351" x2="274.256" y2="19.328"/>
	<line fill="none" stroke="#000000" stroke-miterlimit="10" x1="268.594" y1="13.783" x2="268.209" y2="18.772"/>
	<line fill="none" stroke="#000000" stroke-miterlimit="10" x1="262.404" y1="13.377" x2="262.149" y2="18.375"/>
	<line fill="none" stroke="#000000" stroke-miterlimit="10" x1="256.206" y1="13.133" x2="256.083" y2="18.136"/>
	<line fill="none" stroke="#000000" stroke-miterlimit="10" x1="250.004" y1="13.052" x2="250.012" y2="18.056"/>
	<line fill="none" stroke="#000000" stroke-miterlimit="10" x1="243.802" y1="13.133" x2="243.94" y2="18.135"/>
	<line fill="none" stroke="#000000" stroke-miterlimit="10" x1="237.604" y1="13.377" x2="237.873" y2="18.373"/>
	<line fill="none" stroke="#000000" stroke-miterlimit="10" x1="231.414" y1="13.783" x2="231.814" y2="18.769"/>
	<line fill="none" stroke="#000000" stroke-miterlimit="10" x1="225.237" y1="14.35" x2="225.768" y2="19.324"/>
	<line fill="none" stroke="#000000" stroke-miterlimit="10" x1="219.077" y1="15.079" x2="219.738" y2="20.038"/>
	<line fill="none" stroke="#000000" stroke-miterlimit="10" x1="212.938" y1="15.969" x2="213.729" y2="20.909"/>
	<line fill="none" stroke="#000000" stroke-miterlimit="10" x1="206.825" y1="17.02" x2="207.745" y2="21.937"/>
	<line fill="none" stroke="#000000" stroke-miterlimit="10" x1="200.741" y1="18.229" x2="201.79" y2="23.121"/>
	<line fill="none" stroke="#000000" stroke-miterlimit="10" x1="194.691" y1="19.598" x2="195.868" y2="24.461"/>
	<line fill="none" stroke="#000000" stroke-miterlimit="10" x1="188.68" y1="21.125" x2="189.983" y2="25.955"/>
	<line fill="none" stroke="#000000" stroke-miterlimit="10" x1="182.71" y1="22.808" x2="184.14" y2="27.603"/>
	<line fill="none" stroke="#000000" stroke-miterlimit="10" x1="176.786" y1="24.647" x2="178.341" y2="29.403"/>
	<line fill="none" stroke="#000000" stroke-miterlimit="10" x1="170.912" y1="26.641" x2="172.591" y2="31.355"/>
	<line fill="none" stroke="#000000" stroke-miterlimit="10" x1="165.093" y1="28.788" x2="166.895" y2="33.456"/>
	<line fill="none" stroke="#000000" stroke-miterlimit="10" x1="159.331" y1="31.086" x2="161.255" y2="35.706"/>
	<line fill="none" stroke="#000000" stroke-miterlimit="10" x1="153.632" y1="33.534" x2="155.676" y2="38.103"/>
	<line fill="none" stroke="#000000" stroke-miterlimit="10" x1="147.998" y1="36.131" x2="150.161" y2="40.644"/>
	<line fill="none" stroke="#000000" stroke-miterlimit="10" x1="142.435" y1="38.875" x2="144.716" y2="43.33"/>
	<line fill="none" stroke="#000000" stroke-miterlimit="10" x1="136.945" y1="41.763" x2="139.343" y2="46.157"/>
	<line fill="none" stroke="#000000" stroke-miterlimit="10" x1="131.533" y1="44.794" x2="134.045" y2="49.124"/>
	<line fill="none" stroke="#000000" stroke-miterlimit="10" x1="126.202" y1="47.965" x2="128.826" y2="52.228"/>
	<line fill="none" stroke="#000000" stroke-miterlimit="10" x1="120.956" y1="51.275" x2="123.691" y2="55.467"/>
	<line fill="none" stroke="#000000" stroke-miterlimit="10" x1="115.798" y1="54.721" x2="118.643" y2="58.84"/>
	<line fill="none" stroke="#000000" stroke-miterlimit="10" x1="110.732" y1="58.301" x2="113.684" y2="62.344"/>
	<line fill="none" stroke="#000000" stroke-miterlimit="10" x1="105.762" y1="62.012" x2="108.818" y2="65.977"/>
	<line fill="none" stroke="#000000" stroke-miterlimit="10" x1="100.891" y1="65.853" x2="104.05" y2="69.735"/>
	<line fill="none" stroke="#000000" stroke-miterlimit="10" x1="96.121" y1="69.819" x2="99.381" y2="73.618"/>
	<line fill="none" stroke="#000000" stroke-miterlimit="10" x1="91.458" y1="73.909" x2="94.815" y2="77.621"/>
	<line fill="none" stroke="#000000" stroke-miterlimit="10" x1="86.903" y1="78.119" x2="90.356" y2="81.742"/>
	<line fill="none" stroke="#000000" stroke-miterlimit="10" x1="82.46" y1="82.447" x2="86.007" y2="85.979"/>
	<line fill="none" stroke="#000000" stroke-miterlimit="10" x1="78.132" y1="86.89" x2="81.77" y2="90.328"/>
	<line fill="none" stroke="#000000" stroke-miterlimit="10" x1="73.921" y1="91.445" x2="77.647" y2="94.787"/>
	<line fill="none" stroke="#000000" stroke-miterlimit="10" x1="69.831" y1="96.108" x2="73.644" y2="99.352"/>
	<line fill="none" stroke="#000000" stroke-miterlimit="10" x1="65.864" y1="100.877" x2="69.761" y2="104.02"/>
	<line fill="none" stroke="#000000" stroke-miterlimit="10" x1="62.024" y1="105.749" x2="66.001" y2="108.788"/>
	<line fill="none" stroke="#000000" stroke-miterlimit="10" x1="58.313" y1="110.719" x2="62.368" y2="113.653"/>
	<line fill="none" stroke="#000000" stroke-miterlimit="10" x1="54.733" y1="115.784" x2="58.863" y2="118.611"/>
	<line fill="none" stroke="#000000" stroke-miterlimit="10" x1="51.287" y1="120.942" x2="55.489" y2="123.659"/>
	<line fill="none" stroke="#000000" stroke-miterlimit="10" x1="47.977" y1="126.188" x2="52.249" y2="128.794"/>
	<line fill="none" stroke="#000000" stroke-miterlimit="10" x1="44.805" y1="131.519" x2="49.144" y2="134.012"/>
	<line fill="none" stroke="#000000" stroke-miterlimit="10" x1="41.773" y1="136.931" x2="46.177" y2="139.31"/>
	<line fill="none" stroke="#000000" stroke-miterlimit="10" x1="38.885" y1="142.42" x2="43.35" y2="144.683"/>
	<line fill="none" stroke="#000000" stroke-miterlimit="10" x1="36.142" y1="147.983" x2="40.664" y2="150.128"/>
	<line fill="none" stroke="#000000" stroke-miterlimit="10" x1="33.545" y1="153.616" x2="38.122" y2="155.643"/>
	<line fill="none" stroke="#000000" stroke-miterlimit="10" x1="31.097" y1="159.315" x2="35.725" y2="161.221"/>
	<line fill="none" stroke="#000000" stroke-miterlimit="10" x1="28.798" y1="165.076" x2="33.474" y2="166.861"/>
	<line fill="none" stroke="#000000" stroke-miterlimit="10" x1="26.651" y1="170.896" x2="31.373" y2="172.557"/>
	<line fill="none" stroke="#000000" stroke-miterlimit="10" x1="24.657" y1="176.769" x2="29.42" y2="178.307"/>
	<line fill="none" stroke="#000000" stroke-miterlimit="10" x1="22.817" y1="182.693" x2="27.62" y2="184.105"/>
	<line fill="none" stroke="#000000" stroke-miterlimit="10" x1="21.133" y1="188.663" x2="25.971" y2="189.949"/>
	<line fill="none" stroke="#000000" stroke-miterlimit="10" x1="19.606" y1="194.675" x2="24.476" y2="195.834"/>
	<line fill="none" stroke="#000000" stroke-miterlimit="10" x1="18.237" y1="200.726" x2="23.136" y2="201.757"/>
	<line fill="none" stroke="#000000" stroke-miterlimit="10" x1="17.026" y1="206.809" x2="21.951" y2="207.712"/>
	<line fill="none" stroke="#000000" stroke-miterlimit="10" x1="15.976" y1="212.922" x2="20.922" y2="213.696"/>
	<line fill="none" stroke="#000000" stroke-miterlimit="10" x1="15.085" y1="219.061" x2="20.05" y2="219.705"/>
	<line fill="none" stroke="#000000" stroke-miterlimit="10" x1="14.356" y1="225.221" x2="19.336" y2="225.735"/>
	<line fill="none" stroke="#000000" stroke-miterlimit="10" x1="13.789" y1="231.397" x2="18.781" y2="231.781"/>
	<line fill="none" stroke="#000000" stroke-miterlimit="10" x1="13.382" y1="237.587" x2="18.383" y2="237.84"/>
	<line fill="none" stroke="#000000" stroke-miterlimit="10" x1="13.139" y1="243.785" x2="18.145" y2="243.907"/>
	<line fill="none" stroke="#000000" stroke-miterlimit="10" x1="13.058" y1="249.988" x2="18.064" y2="249.978"/>
	<line fill="none" stroke="#000000" stroke-miterlimit="10" x1="13.139" y1="256.19" x2="18.144" y2="256.049"/>
	<line fill="none" stroke="#000000" stroke-miterlimit="10" x1="13.382" y1="262.389" x2="18.381" y2="262.116"/>
	<line fill="none" stroke="#000000" stroke-miterlimit="10" x1="13.788" y1="268.578" x2="18.778" y2="268.176"/>
	<line fill="none" stroke="#000000" stroke-miterlimit="10" x1="14.355" y1="274.755" x2="19.333" y2="274.222"/>
	<line fill="none" stroke="#000000" stroke-miterlimit="10" x1="15.084" y1="280.914" x2="20.046" y2="280.251"/>
	<line fill="none" stroke="#000000" stroke-miterlimit="10" x1="15.975" y1="287.053" x2="20.917" y2="286.26"/>
	<line fill="none" stroke="#000000" stroke-miterlimit="10" x1="17.025" y1="293.166" x2="21.945" y2="292.244"/>
	<line fill="none" stroke="#000000" stroke-miterlimit="10" x1="18.235" y1="299.25" x2="23.129" y2="298.199"/>
	<line fill="none" stroke="#000000" stroke-miterlimit="10" x1="19.604" y1="305.301" x2="24.469" y2="304.121"/>
	<line fill="none" stroke="#000000" stroke-miterlimit="10" x1="21.13" y1="311.313" x2="25.963" y2="310.006"/>
	<line fill="none" stroke="#000000" stroke-miterlimit="10" x1="22.813" y1="317.282" x2="27.611" y2="315.85"/>
	<line fill="none" stroke="#000000" stroke-miterlimit="10" x1="24.653" y1="323.206" x2="29.411" y2="321.648"/>
	<line fill="none" stroke="#000000" stroke-miterlimit="10" x1="26.646" y1="329.08" x2="31.363" y2="327.398"/>
	<line fill="none" stroke="#000000" stroke-miterlimit="10" x1="28.793" y1="334.899" x2="33.464" y2="333.096"/>
	<line fill="none" stroke="#000000" stroke-miterlimit="10" x1="31.091" y1="340.66" x2="35.714" y2="338.736"/>
	<line fill="none" stroke="#000000" stroke-miterlimit="10" x1="33.54" y1="346.359" x2="38.11" y2="344.315"/>
	<line fill="none" stroke="#000000" stroke-miterlimit="10" x1="36.137" y1="351.992" x2="40.651" y2="349.83"/>
	<line fill="none" stroke="#000000" stroke-miterlimit="10" x1="38.88" y1="357.556" x2="43.337" y2="355.276"/>
	<line fill="none" stroke="#000000" stroke-miterlimit="10" x1="41.769" y1="363.045" x2="46.164" y2="360.65"/>
	<line fill="none" stroke="#000000" stroke-miterlimit="10" x1="44.8" y1="368.457" x2="49.131" y2="365.948"/>
	<line fill="none" stroke="#000000" stroke-miterlimit="10" x1="47.972" y1="373.787" x2="52.235" y2="371.166"/>
	<line fill="none" stroke="#000000" stroke-miterlimit="10" x1="51.281" y1="379.033" x2="55.475" y2="376.301"/>
	<line fill="none" stroke="#000000" stroke-miterlimit="10" x1="54.728" y1="384.191" x2="58.848" y2="381.35"/>
	<line fill="none" stroke="#000000" stroke-miterlimit="10" x1="58.308" y1="389.258" x2="62.352" y2="386.309"/>
	<line fill="none" stroke="#000000" stroke-miterlimit="10" x1="62.019" y1="394.229" x2="65.984" y2="391.174"/>
	<line fill="none" stroke="#000000" stroke-miterlimit="10" x1="65.858" y1="399.1" x2="69.743" y2="395.941"/>
	<line fill="none" stroke="#000000" stroke-miterlimit="10" x1="69.825" y1="403.869" x2="73.625" y2="400.61"/>
	<line fill="none" stroke="#000000" stroke-miterlimit="10" x1="73.915" y1="408.533" x2="77.628" y2="405.176"/>
	<line fill="none" stroke="#000000" stroke-miterlimit="10" x1="78.125" y1="413.088" x2="81.749" y2="409.635"/>
	<line fill="none" stroke="#000000" stroke-miterlimit="10" x1="82.453" y1="417.531" x2="85.985" y2="413.984"/>
	<line fill="none" stroke="#000000" stroke-miterlimit="10" x1="86.896" y1="421.859" x2="90.334" y2="418.221"/>
	<line fill="none" stroke="#000000" stroke-miterlimit="10" x1="91.451" y1="426.07" x2="94.793" y2="422.343"/>
	<line fill="none" stroke="#000000" stroke-miterlimit="10" x1="96.114" y1="430.16" x2="99.358" y2="426.346"/>
	<line fill="none" stroke="#000000" stroke-miterlimit="10" x1="100.884" y1="434.127" x2="104.026" y2="430.229"/>
	<line fill="none" stroke="#000000" stroke-miterlimit="10" x1="105.755" y1="437.967" x2="108.794" y2="433.988"/>
	<line fill="none" stroke="#000000" stroke-miterlimit="10" x1="110.725" y1="441.678" x2="113.659" y2="437.621"/>
	<line fill="none" stroke="#000000" stroke-miterlimit="10" x1="115.79" y1="445.258" x2="118.617" y2="441.126"/>
	<line fill="none" stroke="#000000" stroke-miterlimit="10" x1="120.947" y1="448.703" x2="123.666" y2="444.5"/>
	<line fill="none" stroke="#000000" stroke-miterlimit="10" x1="126.193" y1="452.014" x2="128.801" y2="447.74"/>
	<line fill="none" stroke="#000000" stroke-miterlimit="10" x1="131.524" y1="455.186" x2="134.019" y2="450.845"/>
	<line fill="none" stroke="#000000" stroke-miterlimit="10" x1="136.937" y1="458.217" x2="139.316" y2="453.812"/>
	<line fill="none" stroke="#000000" stroke-miterlimit="10" x1="142.426" y1="461.105" x2="144.689" y2="456.639"/>
	<line fill="none" stroke="#000000" stroke-miterlimit="10" x1="147.989" y1="463.85" x2="150.135" y2="459.324"/>
	<line fill="none" stroke="#000000" stroke-miterlimit="10" x1="153.622" y1="466.447" x2="155.648" y2="461.866"/>
	<line fill="none" stroke="#000000" stroke-miterlimit="10" x1="159.321" y1="468.896" x2="161.227" y2="464.264"/>
	<line fill="none" stroke="#000000" stroke-miterlimit="10" x1="165.082" y1="471.195" x2="166.866" y2="466.514"/>
	<line fill="none" stroke="#000000" stroke-miterlimit="10" x1="170.901" y1="473.342" x2="172.563" y2="468.615"/>
	<line fill="none" stroke="#000000" stroke-miterlimit="10" x1="176.775" y1="475.336" x2="178.312" y2="470.566"/>
	<line fill="none" stroke="#000000" stroke-miterlimit="10" x1="182.699" y1="477.176" x2="184.11" y2="472.367"/>
	<line fill="none" stroke="#000000" stroke-miterlimit="10" x1="188.669" y1="478.859" x2="189.954" y2="474.016"/>
	<line fill="none" stroke="#000000" stroke-miterlimit="10" x1="194.681" y1="480.387" x2="195.839" y2="475.51"/>
	<line fill="none" stroke="#000000" stroke-miterlimit="10" x1="200.73" y1="481.756" x2="201.761" y2="476.85"/>
	<line fill="none" stroke="#000000" stroke-miterlimit="10" x1="206.814" y1="482.967" x2="207.716" y2="478.035"/>
	<line fill="none" stroke="#000000" stroke-miterlimit="10" x1="212.928" y1="484.018" x2="213.699" y2="479.064"/>
	<line fill="none" stroke="#000000" stroke-miterlimit="10" x1="219.066" y1="484.908" x2="219.708" y2="479.936"/>
	<line fill="none" stroke="#000000" stroke-miterlimit="10" x1="225.227" y1="485.637" x2="225.737" y2="480.65"/>
	<line fill="none" stroke="#000000" stroke-miterlimit="10" x1="231.403" y1="486.205" x2="231.783" y2="481.207"/>
	<line fill="none" stroke="#000000" stroke-miterlimit="10" x1="237.593" y1="486.611" x2="237.842" y2="481.605"/>
	<line fill="none" stroke="#000000" stroke-miterlimit="10" x1="243.791" y1="486.855" x2="243.909" y2="481.846"/>
	<line fill="none" stroke="#000000" stroke-miterlimit="10" x1="249.993" y1="486.938" x2="249.98" y2="481.926"/>
	<line fill="none" stroke="#000000" stroke-miterlimit="10" x1="256.196" y1="486.857" x2="256.052" y2="481.846"/>
	<line fill="none" stroke="#000000" stroke-miterlimit="10" x1="262.395" y1="486.615" x2="262.119" y2="481.607"/>
	<line fill="none" stroke="#000000" stroke-miterlimit="10" x1="268.585" y1="486.209" x2="268.179" y2="481.211"/>
	<line fill="none" stroke="#000000" stroke-miterlimit="10" x1="274.762" y1="485.641" x2="274.225" y2="480.656"/>
	<line fill="none" stroke="#000000" stroke-miterlimit="10" x1="280.922" y1="484.912" x2="280.254" y2="479.943"/>
	<line fill="none" stroke="#000000" stroke-miterlimit="10" x1="287.061" y1="484.021" x2="286.263" y2="479.072"/>
	<line fill="none" stroke="#000000" stroke-miterlimit="10" x1="293.174" y1="482.971" x2="292.247" y2="478.045"/>
	<line fill="none" stroke="#000000" stroke-miterlimit="10" x1="299.258" y1="481.76" x2="298.202" y2="476.861"/>
	<line fill="none" stroke="#000000" stroke-miterlimit="10" x1="305.309" y1="480.391" x2="304.124" y2="475.521"/>
	<line fill="none" stroke="#000000" stroke-miterlimit="10" x1="311.32" y1="478.863" x2="310.009" y2="474.027"/>
	<line fill="none" stroke="#000000" stroke-miterlimit="10" x1="317.29" y1="477.18" x2="315.853" y2="472.379"/>
	<line fill="none" stroke="#000000" stroke-miterlimit="10" x1="323.214" y1="475.34" x2="321.651" y2="470.578"/>
	<line fill="none" stroke="#000000" stroke-miterlimit="10" x1="329.088" y1="473.346" x2="327.401" y2="468.627"/>
	<line fill="none" stroke="#000000" stroke-miterlimit="10" x1="334.907" y1="471.199" x2="333.099" y2="466.525"/>
	<line fill="none" stroke="#000000" stroke-miterlimit="10" x1="340.669" y1="468.9" x2="338.738" y2="464.275"/>
	<line fill="none" stroke="#000000" stroke-miterlimit="10" x1="346.368" y1="466.451" x2="344.317" y2="461.879"/>
	<line fill="none" stroke="#000000" stroke-miterlimit="10" x1="352.001" y1="463.854" x2="349.832" y2="459.338"/>
	<line fill="none" stroke="#000000" stroke-miterlimit="10" x1="357.564" y1="461.111" x2="355.278" y2="456.652"/>
	<line fill="none" stroke="#000000" stroke-miterlimit="10" x1="363.054" y1="458.224" x2="360.652" y2="453.825"/>
	<line fill="none" stroke="#000000" stroke-miterlimit="10" x1="368.466" y1="455.193" x2="365.95" y2="450.858"/>
	<line fill="none" stroke="#000000" stroke-miterlimit="10" x1="373.797" y1="452.021" x2="371.168" y2="447.754"/>
	<line fill="none" stroke="#000000" stroke-miterlimit="10" x1="379.043" y1="448.711" x2="376.303" y2="444.514"/>
	<line fill="none" stroke="#000000" stroke-miterlimit="10" x1="384.201" y1="445.265" x2="381.352" y2="441.141"/>
	<line fill="none" stroke="#000000" stroke-miterlimit="10" x1="389.267" y1="441.685" x2="386.311" y2="437.637"/>
	<line fill="none" stroke="#000000" stroke-miterlimit="10" x1="394.237" y1="437.974" x2="391.176" y2="434.004"/>
	<line fill="none" stroke="#000000" stroke-miterlimit="10" x1="399.108" y1="434.134" x2="395.944" y2="430.245"/>
	<line fill="none" stroke="#000000" stroke-miterlimit="10" x1="403.878" y1="430.168" x2="400.613" y2="426.363"/>
	<line fill="none" stroke="#000000" stroke-miterlimit="10" x1="408.542" y1="426.078" x2="405.179" y2="422.36"/>
	<line fill="none" stroke="#000000" stroke-miterlimit="10" x1="413.097" y1="421.867" x2="409.638" y2="418.238"/>
	<line fill="none" stroke="#000000" stroke-miterlimit="10" x1="417.54" y1="417.539" x2="413.987" y2="414.002"/>
	<line fill="none" stroke="#000000" stroke-miterlimit="10" x1="421.868" y1="413.096" x2="418.224" y2="409.652"/>
	<line fill="none" stroke="#000000" stroke-miterlimit="10" x1="426.079" y1="408.541" x2="422.346" y2="405.194"/>
	<line fill="none" stroke="#000000" stroke-miterlimit="10" x1="430.169" y1="403.877" x2="426.349" y2="400.629"/>
	<line fill="none" stroke="#000000" stroke-miterlimit="10" x1="434.136" y1="399.107" x2="430.231" y2="395.961"/>
	<line fill="none" stroke="#000000" stroke-miterlimit="10" x1="437.976" y1="394.236" x2="433.991" y2="391.193"/>
	<line fill="none" stroke="#000000" stroke-miterlimit="10" x1="441.688" y1="389.266" x2="437.624" y2="386.328"/>
	<line fill="none" stroke="#000000" stroke-miterlimit="10" x1="445.268" y1="384.2" x2="441.129" y2="381.37"/>
	<line fill="none" stroke="#000000" stroke-miterlimit="10" x1="448.714" y1="379.043" x2="444.503" y2="376.322"/>
	<line fill="none" stroke="#000000" stroke-miterlimit="10" x1="452.023" y1="373.797" x2="447.743" y2="371.188"/>
	<line fill="none" stroke="#000000" stroke-miterlimit="10" x1="455.195" y1="368.466" x2="450.848" y2="365.969"/>
	<line fill="none" stroke="#000000" stroke-miterlimit="10" x1="458.227" y1="363.054" x2="453.814" y2="360.672"/>
	<line fill="none" stroke="#000000" stroke-miterlimit="10" x1="461.115" y1="357.564" x2="456.642" y2="355.299"/>
	<line fill="none" stroke="#000000" stroke-miterlimit="10" x1="463.859" y1="352.001" x2="459.327" y2="349.854"/>
	<line fill="none" stroke="#000000" stroke-miterlimit="10" x1="466.456" y1="346.367" x2="461.869" y2="344.34"/>
	<line fill="none" stroke="#000000" stroke-miterlimit="10" x1="468.905" y1="340.668" x2="464.267" y2="338.762"/>
	<line fill="none" stroke="#000000" stroke-miterlimit="10" x1="471.204" y1="334.906" x2="466.518" y2="333.123"/>
	<line fill="none" stroke="#000000" stroke-miterlimit="10" x1="473.351" y1="329.086" x2="468.619" y2="327.428"/>
	<line fill="none" stroke="#000000" stroke-miterlimit="10" x1="475.344" y1="323.212" x2="470.571" y2="321.679"/>
	<line fill="none" stroke="#000000" stroke-miterlimit="10" x1="477.184" y1="317.288" x2="472.372" y2="315.881"/>
	<line fill="none" stroke="#000000" stroke-miterlimit="10" x1="478.867" y1="311.318" x2="474.021" y2="310.037"/>
	<line fill="none" stroke="#000000" stroke-miterlimit="10" x1="480.395" y1="305.307" x2="475.516" y2="304.152"/>
	<line fill="none" stroke="#000000" stroke-miterlimit="10" x1="481.764" y1="299.256" x2="476.856" y2="298.23"/>
	<line fill="none" stroke="#000000" stroke-miterlimit="10" x1="482.975" y1="293.172" x2="478.041" y2="292.275"/>
	<line fill="none" stroke="#000000" stroke-miterlimit="10" x1="484.025" y1="287.059" x2="479.07" y2="286.291"/>
	<line fill="none" stroke="#000000" stroke-miterlimit="10" x1="484.916" y1="280.92" x2="479.941" y2="280.282"/>
	<line fill="none" stroke="#000000" stroke-miterlimit="10" x1="485.645" y1="274.76" x2="480.655" y2="274.252"/>
	<line fill="none" stroke="#000000" stroke-miterlimit="10" x1="486.212" y1="268.582" x2="481.211" y2="268.205"/>
	<line fill="none" stroke="#000000" stroke-miterlimit="10" x1="486.617" y1="262.393" x2="481.608" y2="262.146"/>
	<line fill="none" stroke="#000000" stroke-miterlimit="10" x1="486.861" y1="256.195" x2="481.848" y2="256.08"/>
	<line fill="none" stroke="#000000" stroke-miterlimit="10" x1="486.942" y1="249.993" x2="481.927" y2="250.009"/>
</g>
<g id="Layer_2">
</g>
</svg>
