<?xml version="1.0" encoding="utf-8"?>
<!-- Generator: Adobe Illustrator 16.0.0, SVG Export Plug-In . SVG Version: 6.00 Build 0)  -->
<!DOCTYPE svg PUBLIC "-//W3C//DTD SVG 1.1//EN" "http://www.w3.org/Graphics/SVG/1.1/DTD/svg11.dtd">
<svg version="1.1" xmlns="http://www.w3.org/2000/svg" xmlns:xlink="http://www.w3.org/1999/xlink" x="0px" y="0px" width="500px"
	 height="500px" viewBox="0 0 500 500" enable-background="new 0 0 500 500" xml:space="preserve">
<g id="Layer_1">
	<g>
		<path d="M270,193.894c16.798,5.991,30.117,19.306,36.106,36.106h193.097C489.536,107.88,392.118,10.472,270,0.803V193.894z"/>
		<path d="M230,193.894V0.803C107.881,10.472,10.464,107.88,0.797,230h193.097C199.883,213.2,213.202,199.885,230,193.894z"/>
	</g>
	<g>
		<path d="M270,306.105c16.798-5.99,30.117-19.305,36.106-36.105h193.097C489.536,392.119,392.118,489.528,270,499.196V306.105z"/>
		<path d="M230,306.105v193.091C107.881,489.528,10.464,392.119,0.797,270h193.097C199.883,286.801,213.202,300.115,230,306.105z"/>
	</g>
</g>
<g id="Layer_2" display="none">
</g>
</svg>
